<?xml version="1.0" encoding="UTF-8" standalone="no"?>
<svg
   width="128"
   height="128"
   viewBox="0 0 128 128"
   fill="none"
   version="1.1"
   id="svg4"
   sodipodi:docname="PracticumLogo_SVG.svg"
   inkscape:version="1.1.2 (0a00cf5339, 2022-02-04)"
   xmlns:inkscape="http://www.inkscape.org/namespaces/inkscape"
   xmlns:sodipodi="http://sodipodi.sourceforge.net/DTD/sodipodi-0.dtd"
   xmlns="http://www.w3.org/2000/svg"
   xmlns:svg="http://www.w3.org/2000/svg">
  <defs
     id="defs8" />
  <sodipodi:namedview
     id="namedview6"
     pagecolor="#505050"
     bordercolor="#eeeeee"
     borderopacity="1"
     inkscape:pageshadow="0"
     inkscape:pageopacity="0"
     inkscape:pagecheckerboard="0"
     showgrid="false"
     inkscape:zoom="3.2002564"
     inkscape:cx="53.276981"
     inkscape:cy="69.525679"
     inkscape:window-width="1846"
     inkscape:window-height="1016"
     inkscape:window-x="0"
     inkscape:window-y="0"
     inkscape:window-maximized="1"
     inkscape:current-layer="svg4"
     width="128px" />
  <path
     d="m 1.1391663,51.598863 v 22.025241 h 3.929053 v -7.859442 h 1.9158175 c 5.1305012,0 8.4101062,-2.313396 8.4101062,-7.193804 0,-4.43673 -3.0523,-6.971995 -8.3776385,-6.971995 z M 7.0165045,62.785756 H 5.0682193 v -8.207949 h 2.078172 c 2.7600877,0 4.2537767,1.235949 4.2537767,3.993051 0,2.883876 -1.656044,4.214898 -4.3836635,4.214898 z m 14.3374695,0.887343 c 1.071561,-1.933146 2.662698,-2.915562 5.033125,-2.788803 v -3.549387 c -2.208087,0.126774 -4.026528,1.426095 -4.935749,3.517701 h -0.09738 l -0.09738,-3.169095 h -3.766812 v 15.940589 h 3.864188 z m 18.289893,-0.919044 c 0,-3.866277 -2.013336,-5.324073 -6.104686,-5.324073 -2.565322,0 -4.578515,0.792285 -5.747452,1.457796 v 3.137394 c 1.039007,-0.760584 3.312059,-1.584541 5.292841,-1.584541 1.850853,0 2.695109,0.633811 2.695109,2.345125 v 0.887343 h -0.616951 c -5.909792,0 -8.539936,1.901502 -8.539936,5.133955 0,3.232453 2.013193,5.038811 5.000571,5.038811 2.273052,0 3.247095,-0.728826 3.993975,-1.489495 h 0.162341 c 0.03255,0.411964 0.16234,0.95073 0.29227,1.267734 h 3.76667 c -0.12993,-1.299435 -0.194752,-2.598728 -0.194752,-3.89802 z m -3.864188,7.06713 c -0.487022,0.697126 -1.396242,1.267592 -2.760073,1.267592 -1.623548,0 -2.435393,-0.950729 -2.435393,-2.376824 0,-1.869759 1.33142,-2.535327 4.64348,-2.535327 h 0.551986 z m 13.630777,4.119782 c 1.786029,0 3.052344,-0.316863 3.994116,-0.98243 v -3.074093 c -0.974182,0.665567 -2.14312,1.077531 -3.766812,1.077531 -2.760072,0 -3.896457,-2.09152 -3.896457,-5.387374 0,-3.454356 1.396246,-5.229057 3.92901,-5.229057 1.493619,0 2.954827,0.507066 3.734259,0.982431 v -3.200781 c -0.811842,-0.443679 -2.24064,-0.760584 -4.156456,-0.760584 -4.935607,0 -7.50093,3.454299 -7.50093,8.30295 0,5.324116 2.50036,8.271407 7.66327,8.271407 z m 5.778725,-16.257452 v 2.978949 h 2.045746 v 8.176291 c 0,2.978849 1.720927,5.102212 5.292841,5.102212 1.883268,0 2.954828,-0.411964 2.954828,-0.411964 V 70.45491 c 0,0 -0.714326,0.507065 -2.013194,0.507065 -1.623549,0 -2.370428,-0.919029 -2.370428,-2.09152 v -8.207991 h 4.058941 v -2.978949 h -4.058941 v -3.486 h -3.864047 v 3.486 z m 14.620886,-1.964832 c 1.265886,0 2.272483,-0.855657 2.272483,-2.218365 0,-1.33102 -1.006597,-2.218365 -2.272483,-2.218365 -1.266458,0 -2.24064,0.887345 -2.24064,2.218365 0,1.362708 0.974182,2.218365 2.24064,2.218365 z m -1.915959,1.964832 v 15.940589 h 3.863761 V 57.683515 Z m 13.86661,16.257452 c 1.786029,0 3.052344,-0.316863 3.993973,-0.98243 v -3.074093 c -0.974044,0.665567 -2.142981,1.077531 -3.766669,1.077531 -2.760072,0 -3.8966,-2.09152 -3.8966,-5.387374 0,-3.454356 1.396384,-5.229057 3.929153,-5.229057 1.493619,0 2.954827,0.507066 3.734116,0.982431 v -3.200781 c -0.811703,-0.443679 -2.240497,-0.760584 -4.156313,-0.760584 -4.935607,0 -7.500929,3.454299 -7.500929,8.30295 0,5.324116 2.500355,8.271407 7.663269,8.271407 z m 15.786266,-4.81705 c -0.71433,0.855628 -1.850853,1.584597 -3.247094,1.584597 -1.363831,0 -1.980784,-0.570466 -1.980784,-1.774658 V 57.683515 H 88.455059 V 69.31412 c 0,3.169052 1.298868,4.563446 4.448585,4.563446 2.305465,0 3.669296,-0.823928 4.448589,-1.584597 h 0.194751 l 0.09752,1.331135 h 3.766666 V 57.683515 h -3.864182 z m 10.846256,-6.9403 c 0.71432,-0.855642 1.68851,-1.58454 3.08475,-1.58454 1.36383,0 1.81844,0.570438 1.81844,1.774686 v 11.250341 h 3.86405 V 62.183617 c 0.71447,-0.855642 1.68851,-1.58454 3.08489,-1.58454 1.36369,0 1.8183,0.570438 1.8183,1.774686 v 11.250341 h 3.86419 V 61.993486 c 0,-3.169095 -1.13652,-4.563504 -4.28624,-4.563504 -2.50036,0 -3.99398,0.95073 -4.9032,2.028219 -0.61695,-1.394394 -1.91582,-2.028219 -4.02653,-2.028219 -2.30546,0 -3.34461,0.823971 -4.1239,1.584555 h -0.19475 l -0.0974,-1.331022 h -3.76681 v 15.940589 h 3.86419 z"
     fill="#131313"
     id="path2"
     style="stroke-width:1.42154" />
</svg>
